<?xml version="1.0" standalone="no"?>
<!DOCTYPE svg PUBLIC "-//W3C//DTD SVG 20010904//EN"
 "http://www.w3.org/TR/2001/REC-SVG-20010904/DTD/svg10.dtd">
<svg version="1.0" xmlns="http://www.w3.org/2000/svg"
 width="240.000000pt" height="49.000000pt" viewBox="0 0 240.000000 49.000000"
 preserveAspectRatio="xMidYMid meet">

<g transform="translate(0.000000,49.000000) scale(0.100000,-0.100000)"
fill="#061b94" stroke="none">
<path d="M1313 433 c-20 -7 -15 -41 6 -48 26 -8 51 4 51 25 0 24 -28 35 -57
23z"/>
<path d="M85 334 c-34 -88 -41 -109 -24 -76 7 12 15 22 19 22 3 0 16 -20 28
-45 l22 -45 -46 0 c-42 0 -45 2 -40 23 l6 22 -11 -22 c-7 -13 -15 -23 -18 -23
-4 0 -7 -12 -8 -27 -2 -27 -1 -27 9 -5 9 18 19 22 59 22 38 0 51 -4 59 -20 8
-15 21 -20 55 -20 l44 0 -18 43 c-10 23 -38 84 -62 135 l-44 94 -30 -78z"/>
<path d="M570 270 l0 -130 83 2 c45 1 65 3 45 5 l-38 4 0 84 0 84 33 4 32 4
-32 1 c-29 2 -33 5 -33 31 0 27 4 30 38 34 20 2 0 4 -45 5 l-83 2 0 -130z"/>
<path d="M1225 360 c3 -5 10 -10 16 -10 5 0 9 5 9 10 0 6 -7 10 -16 10 -8 0
-12 -4 -9 -10z"/>
<path d="M1195 350 c-3 -5 -25 -10 -49 -10 -73 0 -110 -65 -67 -117 36 -44
136 -24 155 30 8 22 6 33 -13 57 -12 17 -19 35 -16 40 3 6 4 10 1 10 -3 0 -8
-4 -11 -10z m15 -40 c32 -32 25 -66 -17 -89 -38 -19 -43 -14 -43 49 0 53 2 60
20 60 11 0 29 -9 40 -20z"/>
<path d="M297 322 c-29 -32 -20 -58 36 -106 42 -38 49 -48 37 -56 -19 -12 -32
-12 -67 0 -27 10 -27 9 -8 -6 25 -19 88 -13 116 12 31 28 23 58 -26 102 -55
49 -58 67 -10 59 21 -3 33 -2 30 4 -11 17 -91 10 -108 -9z"/>
<path d="M790 240 l0 -100 40 0 40 0 0 79 c0 71 3 82 22 95 12 8 25 13 30 10
4 -3 8 -45 8 -95 l0 -89 41 0 42 0 -5 84 c-2 49 -10 91 -17 100 -17 20 -70 21
-99 0 -20 -14 -22 -14 -22 0 0 12 -10 16 -40 16 l-40 0 0 -100z"/>
<path d="M1300 240 l0 -100 35 0 35 0 0 100 0 100 -35 0 -35 0 0 -100z"/>
<path d="M1440 240 l0 -100 35 0 35 0 0 74 c0 68 2 76 26 95 15 11 30 18 35
15 5 -3 9 -45 9 -95 l0 -89 35 0 35 0 0 81 c0 101 -9 119 -59 119 -22 0 -44
-6 -51 -15 -7 -8 -16 -15 -21 -15 -5 0 -9 7 -9 15 0 10 -11 15 -35 15 l-35 0
0 -100z"/>
<path d="M1743 322 c-49 -38 -52 -110 -7 -153 33 -31 114 -34 141 -5 18 18 17
18 -14 2 -18 -9 -41 -16 -53 -16 -17 0 -20 6 -20 45 l0 45 60 0 c54 0 60 2 60
21 0 11 -13 34 -29 50 -24 23 -38 29 -73 29 -25 0 -52 -8 -65 -18z m97 -32 c0
-36 -2 -40 -25 -40 -22 0 -25 4 -25 40 0 36 3 40 25 40 23 0 25 -4 25 -40z"/>
<path d="M1979 311 c-59 -60 -29 -151 56 -167 40 -7 105 16 105 37 0 7 -8 5
-19 -5 -11 -10 -35 -19 -53 -19 -32 -2 -33 -1 -36 41 l-3 42 60 0 c59 0 61 1
61 25 0 73 -113 103 -171 46z m111 -21 c0 -38 -2 -40 -30 -40 -28 0 -30 2 -30
40 0 38 2 40 30 40 28 0 30 -2 30 -40z"/>
<path d="M2210 240 l0 -100 35 0 35 0 0 50 c0 71 25 130 56 130 13 0 24 5 24
10 0 21 -39 9 -59 -17 l-20 -28 -1 28 c0 24 -4 27 -35 27 l-35 0 0 -100z"/>
<path d="M1067 193 c-4 -3 -7 -16 -7 -28 0 -28 37 -45 95 -45 50 0 69 -16 30
-26 -27 -7 -74 -2 -110 12 -16 6 -18 4 -8 -6 7 -8 39 -16 71 -18 50 -4 62 -1
86 19 48 42 11 79 -79 79 -24 0 -47 5 -50 10 -7 12 -19 13 -28 3z"/>
</g>
</svg>
